<svg version="1.1"
     xmlns="http://www.w3.org/2000/svg" xmlns:xlink="http://www.w3.org/1999/xlink" xmlns:a="http://ns.adobe.com/AdobeSVGViewerExtensions/3.0/"
     x="0px" y="0px" width="90px" height="125px" viewBox="0 0 110.2 153" enable-background="new 0 0 110.2 153"
     xml:space="preserve">
<defs>
</defs>
    <path fill="#fff" d="M0,106.6c0-30,0-60,0-90c0.5,0.1,0.9,0.2,1.4,0.4C15,23.1,28.6,29.2,42.2,35.4c1,0.4,1.7,0.4,2.5-0.1
	c15.7-8.5,31.4-17,47.2-25.5c6-3.2,12-6.5,18-9.8c0.1,0.4,0.2,0.7,0.2,1.1c0,18.4,0,36.9,0,55.3c0,8.6,0,17.1,0,25.7
	c-0.1,0.6-0.2,1.3-0.2,1.9c-0.2,1.7-0.3,3.5-0.7,5.2c-1.9,10.4-6.8,19.2-14.5,26.5c-0.4,0.4-0.7,0.9-0.8,1.4
	c-6.4,25.7-32.8,41.6-59,34c-18.5-5.4-29.8-18.1-33.9-37C0.4,111.7,0.3,109.1,0,106.6z M89.8,85.7c0-7.2,0-14.4,0-21.6
	c0-0.9-0.3-1.4-1.1-1.8C74,55.8,59.4,49.2,44.8,42.6c-0.8-0.4-1.4-0.3-2.1,0.1c-7,3.8-14.1,7.6-21.2,11.4c-0.8,0.4-1.1,0.9-1.1,1.8
	c0,8.1-0.1,16.2,0.1,24.2c0,2.9,0.3,5.9,0.8,8.8c3.4,18.4,19.5,32.6,38.1,33.7c10.6,0.6,20.1-2.2,28.6-8.6c0.5-0.4,1-1.2,1.1-1.8
	c0.3-2.2,0.5-4.4,0.5-6.6C89.8,99,89.8,92.3,89.8,85.7z M5.7,25c0,0.6,0,0.9,0,1.3c0,26.5,0,53,0,79.4c0,3.2,0.4,6.4,1.1,9.5
	c4.9,20.7,25,35.2,47.2,31.7c14.9-2.4,25.5-10.6,32-24.1c0.1-0.2,0.2-0.5,0.3-0.9c-0.5,0.3-0.9,0.5-1.2,0.7c-10,5.4-20.7,7-31.8,4.8
	c-22-4.2-38.1-23.6-38.4-46.1c-0.1-9.6,0-19.3,0-28.9c0-0.8,0.3-1.2,1-1.5c6.8-3.6,13.6-7.3,20.3-11c0.3-0.2,0.6-0.4,1.1-0.6
	C26.7,34.4,16.3,29.8,5.7,25z M104.5,9.3C86.2,19.2,68.1,28.9,50,38.8c0.5,0.2,0.8,0.4,1.2,0.6c14.3,6.4,28.6,12.9,43,19.3
	c0.9,0.4,1.2,0.8,1.2,1.8c0,15,0,30.1,0,45.1c0,0.3,0,0.6,0.1,1.2c0.3-0.3,0.4-0.4,0.5-0.6c5.9-7.8,8.7-16.7,8.7-26.4
	c-0.1-23,0-45.9,0-68.9C104.5,10.5,104.5,10,104.5,9.3z"/>
</svg>
